<?xml version="1.0" encoding="UTF-8" standalone="no"?>
<!DOCTYPE svg PUBLIC "-//W3C//DTD SVG 1.1//EN" "http://www.w3.org/Graphics/SVG/1.1/DTD/svg11.dtd">
<svg width="100%" height="100%" viewBox="0 0 20 20" version="1.1" xmlns="http://www.w3.org/2000/svg" xmlns:xlink="http://www.w3.org/1999/xlink" xml:space="preserve" xmlns:serif="http://www.serif.com/" style="fill-rule:evenodd;clip-rule:evenodd;stroke-linejoin:round;stroke-miterlimit:2;">
    <g transform="matrix(-0.934579,0,0,0.934579,19.2631,0.654206)">
        <g transform="matrix(0.58737,0,0,0.58737,7.04844,10)">
            <g transform="matrix(1,0,0,1,-12,-12)">
                <g transform="matrix(0.025,0,0,0.025,0,24)">
                    <path d="M680,-320L624,-376L687,-440L440,-440L440,-520L687,-520L624,-584L680,-640L840,-480L680,-320ZM440,-120L440,-200L520,-200L520,-120L440,-120ZM440,-760L440,-840L520,-840L520,-760L440,-760ZM600,-120L600,-200L680,-200L680,-120L600,-120ZM600,-760L600,-840L680,-840L680,-760L600,-760ZM760,-120L760,-200L840,-200L840,-120L760,-120ZM760,-760L760,-840L840,-840L840,-760L760,-760Z" style="fill:white;fill-rule:nonzero;"/>
                </g>
            </g>
        </g>
        <g transform="matrix(0.58737,0,0,0.58737,5.64844,10)">
            <g transform="matrix(1,0,0,1,-12,-12)">
                <g transform="matrix(0.025,0,0,0.025,0,24)">
                    <path d="M200,-120C178,-120 159.167,-127.833 143.5,-143.5C127.833,-159.167 120,-178 120,-200L120,-760C120,-782 127.833,-800.833 143.5,-816.5C159.167,-832.167 178,-840 200,-840L360,-840C382,-840 400.833,-832.167 416.5,-816.5C432.167,-800.833 440,-782 440,-760L440,-200C440,-178 432.167,-159.167 416.5,-143.5C400.833,-127.833 382,-120 360,-120L200,-120Z" style="fill:white;fill-rule:nonzero;"/>
                </g>
            </g>
        </g>
        <g transform="matrix(-0.444624,0,0,0.444624,15.8876,10.029)">
            <g transform="matrix(1,0,0,1,-12,-12)">
                <g transform="matrix(0.025,0,0,0.025,0,24)">
                    <path d="M376,-300L480,-404L584,-300L640,-356L536,-460L640,-564L584,-620L480,-516L376,-620L320,-564L424,-460L320,-356L376,-300ZM280,-120C258,-120 239.167,-127.833 223.5,-143.5C207.833,-159.167 200,-178 200,-200L200,-720L160,-720L160,-800L360,-800L360,-840L600,-840L600,-800L800,-800L800,-720L760,-720L760,-200C760,-178 752.167,-159.167 736.5,-143.5C720.833,-127.833 702,-120 680,-120L280,-120ZM680,-720L280,-720L280,-200L680,-200L680,-720ZM280,-720L280,-200L280,-720Z" style="fill:white;fill-rule:nonzero;"/>
                </g>
            </g>
        </g>
    </g>
</svg>
