<?xml version="1.0" encoding="UTF-8" standalone="no"?>
<!DOCTYPE svg PUBLIC "-//W3C//DTD SVG 1.1//EN" "http://www.w3.org/Graphics/SVG/1.1/DTD/svg11.dtd">
<svg width="100%" height="100%" viewBox="0 0 20 20" version="1.1" xmlns="http://www.w3.org/2000/svg" xmlns:xlink="http://www.w3.org/1999/xlink" xml:space="preserve" xmlns:serif="http://www.serif.com/" style="fill-rule:evenodd;clip-rule:evenodd;stroke-linejoin:round;stroke-miterlimit:2;">
    <g transform="matrix(0.934579,0,0,0.934579,1.30841,0.654206)">
        <g transform="matrix(0.58737,0,0,0.58737,7.04844,10)">
            <g transform="matrix(1,0,0,1,-12,-12)">
                <g transform="matrix(0.025,0,0,0.025,0,24)">
                    <path d="M680,-320L624,-376L687,-440L440,-440L440,-520L687,-520L624,-584L680,-640L840,-480L680,-320ZM440,-120L440,-200L520,-200L520,-120L440,-120ZM440,-760L440,-840L520,-840L520,-760L440,-760ZM600,-120L600,-200L680,-200L680,-120L600,-120ZM600,-760L600,-840L680,-840L680,-760L600,-760ZM760,-120L760,-200L840,-200L840,-120L760,-120ZM760,-760L760,-840L840,-840L840,-760L760,-760Z" style="fill:white;fill-rule:nonzero;"/>
                </g>
            </g>
        </g>
        <g transform="matrix(0.0148208,0,0,0.0148208,5.8095,17.143)">
            <path d="M600,-120C578,-120 559.167,-127.833 543.5,-143.5C527.833,-159.167 520,-178 520,-200L520,-760C520,-782 527.833,-800.833 543.5,-816.5C559.167,-832.167 578,-840 600,-840L760,-840C782,-840 800.833,-832.167 816.5,-816.5C832.167,-800.833 840,-782 840,-760L840,-200C840,-178 832.167,-159.167 816.5,-143.5C800.833,-127.833 782,-120 760,-120L600,-120ZM760,-760L600,-760L600,-200L760,-200L760,-760Z" style="fill:white;fill-rule:nonzero;"/>
        </g>
        <g transform="matrix(0.58737,0,0,0.58737,5.64844,10)">
            <g transform="matrix(1,0,0,1,-12,-12)">
                <g transform="matrix(0.025,0,0,0.025,0,24)">
                    <path d="M200,-120C178,-120 159.167,-127.833 143.5,-143.5C127.833,-159.167 120,-178 120,-200L120,-760C120,-782 127.833,-800.833 143.5,-816.5C159.167,-832.167 178,-840 200,-840L360,-840C382,-840 400.833,-832.167 416.5,-816.5C432.167,-800.833 440,-782 440,-760L440,-200C440,-178 432.167,-159.167 416.5,-143.5C400.833,-127.833 382,-120 360,-120L200,-120Z" style="fill:white;fill-rule:nonzero;"/>
                </g>
            </g>
        </g>
    </g>
</svg>
